<svg width="160" height="42" viewBox="0 0 160 42" fill="none" xmlns="http://www.w3.org/2000/svg">
<path d="M139.741 37.1703C138.692 37.1703 137.715 37.0853 136.808 36.9153C138.168 31.957 139.245 26.9703 140.038 21.9553C140.86 16.912 141.639 11.8403 142.376 6.74029C143.849 6.42862 145.379 6.15946 146.966 5.93279C148.552 5.67779 150.196 5.55029 151.896 5.55029C152.831 5.55029 153.822 5.72029 154.871 6.06029C155.919 6.37196 156.797 6.95279 157.506 7.80279C158.242 8.62446 158.611 9.80029 158.611 11.3303C158.611 12.747 158.313 14.0503 157.718 15.2403C157.123 16.4303 156.372 17.4503 155.466 18.3003C154.559 19.1503 153.624 19.7595 152.661 20.1278C153.057 20.3261 153.525 20.6803 154.063 21.1903C154.601 21.7003 155.069 22.3803 155.466 23.2303C155.862 24.0803 156.061 25.1145 156.061 26.3328C156.061 28.0328 155.551 29.577 154.531 30.9653C153.539 32.3253 152.207 33.4586 150.536 34.3653C148.921 35.272 147.178 35.9661 145.308 36.4478C143.438 36.9295 141.582 37.1703 139.741 37.1703ZM147.306 16.6428C148.184 16.4728 149.02 16.2461 149.813 15.9628C150.606 15.6795 151.244 15.3536 151.726 14.9853C152.236 14.617 152.491 14.2203 152.491 13.7953C152.491 13.257 152.278 12.832 151.853 12.5203C151.428 12.2086 150.918 11.982 150.323 11.8403C149.728 11.6986 149.176 11.6278 148.666 11.6278H148.241C148.042 12.7611 147.858 13.7528 147.688 14.6028C147.518 15.4245 147.391 16.1045 147.306 16.6428ZM145.138 28.5853C145.705 28.5286 146.328 28.4295 147.008 28.2878C147.688 28.1461 148.34 27.9336 148.963 27.6503C149.586 27.3386 150.096 26.942 150.493 26.4603C150.918 25.9503 151.131 25.3411 151.131 24.6328C151.131 23.9528 150.904 23.4145 150.451 23.0178C149.997 22.6211 149.445 22.3378 148.793 22.1678C148.17 21.9695 147.575 21.8703 147.008 21.8703H146.668C146.526 21.8703 146.413 21.8845 146.328 21.9128C146.158 22.9611 145.96 24.0661 145.733 25.2278C145.506 26.3895 145.308 27.5086 145.138 28.5853Z" fill="#2B2926"/>
<path d="M109.262 36.7451C110.509 32.9484 111.699 29.2509 112.832 25.6526C113.314 24.1793 113.81 22.6068 114.32 20.9351C114.83 19.2634 115.34 17.5918 115.85 15.9201C116.36 14.2201 116.841 12.5909 117.295 11.0326C117.748 9.47427 118.131 8.08593 118.442 6.8676C120.001 6.8676 121.474 6.7826 122.862 6.6126C123.571 6.5276 124.293 6.4426 125.03 6.3576C125.795 6.2726 126.574 6.20177 127.367 6.1451L127.112 8.2276C127.056 8.62426 126.999 9.0351 126.942 9.4601C126.886 9.85677 126.829 10.2676 126.772 10.6926C126.716 11.1176 126.645 11.5568 126.56 12.0101C126.475 12.4351 126.404 12.8743 126.347 13.3276C126.234 14.2059 126.064 15.4384 125.837 17.0251C125.611 18.5834 125.341 20.2834 125.03 22.1251H125.582C126.404 19.9718 127.084 18.1868 127.622 16.7701C128.161 15.3251 128.6 14.1493 128.94 13.2426C129.421 11.9109 129.946 10.5651 130.512 9.2051C131.079 7.8451 131.546 6.79677 131.915 6.0601C132.595 6.00343 133.402 5.91843 134.337 5.8051C135.301 5.66343 136.264 5.5076 137.227 5.3376C138.219 5.1676 139.069 5.02593 139.777 4.9126C139.381 7.2926 139.012 9.70093 138.672 12.1376C138.361 14.5459 138.077 16.8551 137.822 19.0651C137.596 21.2468 137.397 23.2159 137.227 24.9726C137.057 26.7293 136.901 28.4718 136.76 30.2001C136.618 31.9001 136.476 33.5859 136.335 35.2576L128.94 36.5751C128.94 36.5184 128.982 35.8809 129.067 34.6626C129.152 33.4443 129.294 31.9284 129.492 30.1151C129.691 28.3018 129.889 26.5876 130.087 24.9726C130.286 23.3293 130.484 21.9834 130.682 20.9351H130.3C129.591 23.0884 128.727 25.4401 127.707 27.9901C126.716 30.5401 125.738 33.3593 124.775 36.4476C123.783 36.4759 122.933 36.5184 122.225 36.5751C121.516 36.6034 120.695 36.6459 119.76 36.7026L121.12 20.9351H120.482C120.454 21.2468 120.326 21.8559 120.1 22.7626C119.873 23.6409 119.604 24.6609 119.292 25.8226C118.981 26.9559 118.655 28.0893 118.315 29.2226C117.04 33.6709 116.36 36.0226 116.275 36.2776L109.262 36.7451Z" fill="#2B2926"/>
<path d="M99.7448 37.765C98.8948 37.765 98.0306 37.5809 97.1523 37.2125C96.274 36.8442 95.5373 36.2775 94.9423 35.5125C94.3473 34.7475 94.0498 33.77 94.0498 32.58V32.24C94.0498 32.0984 94.064 31.985 94.0923 31.9C94.1773 31.1634 94.2906 30.2 94.4323 29.01C94.6023 27.82 94.8006 26.5309 95.0273 25.1425C95.254 23.7259 95.4806 22.3234 95.7073 20.935C95.9623 19.5467 96.189 18.2859 96.3873 17.1525C96.8123 14.8859 97.1523 13.0584 97.4073 11.67C97.6623 10.2817 97.8606 9.21921 98.0023 8.48254C98.1723 7.71754 98.2998 7.15087 98.3848 6.78254L105.397 6.10254C105.029 7.83087 104.675 9.47421 104.335 11.0325C104.023 12.5625 103.726 14.0217 103.442 15.41L101.487 24.8025C101.317 25.5109 101.19 26.1059 101.105 26.5875C100.991 27.0409 100.864 27.6217 100.722 28.33C100.609 29.01 100.552 29.6334 100.552 30.2C100.552 30.6534 100.666 31.0359 100.892 31.3475C101.119 31.6309 101.402 31.7725 101.742 31.7725C102.224 31.7725 102.621 31.5884 102.932 31.22C103.244 30.8517 103.499 30.3984 103.697 29.86C103.896 29.3217 104.051 28.7834 104.165 28.245C104.278 27.6784 104.377 27.225 104.462 26.885C104.746 25.5817 105.001 24.3209 105.227 23.1025C105.482 21.8559 105.737 20.5384 105.992 19.15C106.276 17.7617 106.587 16.1609 106.927 14.3475C107.154 13.1009 107.381 11.84 107.607 10.565C107.862 9.26171 108.103 7.94421 108.33 6.61254L114.79 6.18754L113.302 14.39C113.104 15.4384 112.877 16.6142 112.622 17.9175C112.396 19.2209 112.141 20.5384 111.857 21.87C111.574 23.2017 111.305 24.4625 111.05 25.6525C110.823 26.8425 110.611 27.8625 110.412 28.7125C109.846 31.0359 108.967 32.8634 107.777 34.195C106.587 35.4984 105.27 36.4192 103.825 36.9575C102.408 37.4959 101.048 37.765 99.7448 37.765Z" fill="#2B2926"/>
<path d="M74.0181 37.0426L76.2281 25.9926C76.5681 23.9526 76.9364 21.856 77.3331 19.7026C77.7297 17.5493 78.0981 15.4243 78.4381 13.3276C78.8064 11.2309 79.0897 9.26178 79.2881 7.42012C80.9031 6.91012 82.6456 6.54178 84.5156 6.31511C86.3856 6.06012 88.2414 5.93262 90.0831 5.93262C92.2364 5.93262 93.6956 6.40012 94.4606 7.33512C95.2539 8.27012 95.6506 9.53095 95.6506 11.1176C95.6506 12.5626 95.3106 14.0218 94.6306 15.4951C93.9506 16.9401 93.0581 18.2576 91.9531 19.4476C90.8764 20.6093 89.6864 21.5301 88.3831 22.2101C88.8931 23.3434 89.4314 24.5901 89.9981 25.9501C90.5931 27.2818 91.1456 28.5568 91.6556 29.7751C91.9389 30.4834 92.2222 31.1918 92.5056 31.9001C92.8172 32.6084 93.1147 33.3168 93.3981 34.0251L86.8106 36.3201C86.5272 35.3285 86.2581 34.3793 86.0031 33.4726C85.7481 32.566 85.5072 31.6735 85.2806 30.7951C84.9972 29.7468 84.7281 28.7409 84.4731 27.7776C84.2181 26.7859 83.9914 25.9076 83.7931 25.1426C83.6231 24.3776 83.5239 23.8393 83.4956 23.5276L82.9431 23.6976C82.7731 24.6043 82.5606 25.7093 82.3056 27.0126C82.0789 28.316 81.8664 29.5768 81.6681 30.7951L80.9031 35.2576L74.0181 37.0426ZM84.0056 18.5976C84.5156 18.541 85.1389 18.3284 85.8756 17.9601C86.6406 17.5634 87.3914 17.0818 88.1281 16.5151C88.8931 15.9485 89.5306 15.3676 90.0406 14.7726C90.5506 14.1776 90.8056 13.6535 90.8056 13.2001C90.8056 12.6334 90.4656 12.2651 89.7856 12.0951C89.1339 11.8968 88.2697 11.7976 87.1931 11.7976H86.2581C86.0881 11.826 85.9322 11.8401 85.7906 11.8401C85.6489 11.8401 85.5072 11.8401 85.3656 11.8401L84.0056 18.5976Z" fill="#2B2926"/>
<path d="M63.9852 37.0851C62.2002 37.0851 60.741 36.2493 59.6077 34.5776C58.4744 32.906 57.9077 30.6109 57.9077 27.6926C57.9077 25.0293 58.276 22.4085 59.0127 19.8301C59.7494 17.2235 60.7835 14.8859 62.1152 12.8176C63.4469 10.7493 65.0194 9.09178 66.8327 7.84512C68.6744 6.57012 70.7002 5.93262 72.9102 5.93262C74.2986 5.93262 75.4886 6.47095 76.4802 7.54762C77.4719 8.62428 77.9677 10.0693 77.9677 11.8826V12.3926C77.9677 12.5059 77.9677 12.6051 77.9677 12.6901C77.9677 12.7751 77.9536 12.8743 77.9252 12.9876L72.3577 14.4751C72.0177 13.7668 71.6211 13.4126 71.1677 13.4126C70.4877 13.4126 69.7652 13.9651 69.0002 15.0701C68.2636 16.1751 67.5552 17.4926 66.8752 19.0226C66.4219 20.0426 66.0111 21.0909 65.6427 22.1676C65.3027 23.2443 65.0335 24.2501 64.8352 25.1851C64.6369 26.1201 64.5377 26.8851 64.5377 27.4801C64.5377 28.3584 64.6652 28.996 64.9202 29.3926C65.1186 29.761 65.4302 29.9451 65.8552 29.9451C66.2802 29.9451 66.7477 29.7468 67.2577 29.3501C67.7677 28.9251 68.2352 28.4009 68.6602 27.7776C69.1136 27.1543 69.4111 26.531 69.5527 25.9076L74.3977 27.8626C73.0094 31.036 71.3519 33.3734 69.4252 34.8751C67.5269 36.3484 65.7136 37.0851 63.9852 37.0851Z" fill="#2B2926"/>
<g clip-path="url(#clip0_8728_3548)">
<path d="M23.5988 1.3672C13.9798 0.382928 13.9129 11.3473 13.9129 11.3473C5.34604 0.287977 -7.52921 18.9044 5.64955 24.3904C27.1264 33.3319 3.25202 30.9039 1.93881 40.7492H20.5578L20.0245 34.8503L40.9435 40.7492V21.168C39.5803 21.0501 36.7411 21.0272 34.1774 26.6624C30.9389 33.7821 21.8498 28.6819 21.8498 28.6819C21.8498 28.6819 37.4023 24.7363 39.933 17.0528C42.0533 10.6156 36.2536 8.42582 28.1429 12.7266C28.1429 12.7266 31.1016 2.13444 23.5988 1.36635V1.3672Z" fill="#2B2926"/>
<path d="M15.6991 23.6985C18.0056 23.6985 19.8753 21.8288 19.8753 19.5224C19.8753 17.2159 18.0056 15.3462 15.6991 15.3462C13.3927 15.3462 11.5229 17.2159 11.5229 19.5224C11.5229 21.8288 13.3927 23.6985 15.6991 23.6985Z" fill="white"/>
<path d="M24.0522 24.3895C21.3681 24.3895 19.1851 22.2065 19.1851 19.5224C19.1851 16.8383 21.3681 14.6553 24.0522 14.6553C26.7362 14.6553 28.9193 16.8383 28.9193 19.5224C28.9193 22.2065 26.7362 24.3895 24.0522 24.3895Z" fill="white"/>
<path d="M24.0522 15.3454C26.359 15.3454 28.2284 17.2156 28.2284 19.5216C28.2284 21.8275 26.3582 23.6977 24.0522 23.6977C21.7462 23.6977 19.876 21.8275 19.876 19.5216C19.876 17.2156 21.7462 15.3454 24.0522 15.3454ZM24.0522 13.9644C20.9875 13.9644 18.4941 16.4577 18.4941 19.5224C18.4941 22.5871 20.9875 25.0805 24.0522 25.0805C27.1169 25.0805 29.6102 22.5871 29.6102 19.5224C29.6102 16.4577 27.1169 13.9644 24.0522 13.9644Z" fill="#2B2926"/>
<path d="M17.9249 22.0402C19.0022 22.0402 19.8756 21.1668 19.8756 20.0894C19.8756 19.012 19.0022 18.1387 17.9249 18.1387C16.8475 18.1387 15.9741 19.012 15.9741 20.0894C15.9741 21.1668 16.8475 22.0402 17.9249 22.0402Z" fill="#2B2926"/>
<path d="M26.2779 22.0402C27.3553 22.0402 28.2286 21.1668 28.2286 20.0894C28.2286 19.012 27.3553 18.1387 26.2779 18.1387C25.2005 18.1387 24.3271 19.012 24.3271 20.0894C24.3271 21.1668 25.2005 22.0402 26.2779 22.0402Z" fill="#2B2926"/>
</g>
<defs>
<clipPath id="clip0_8728_3548">
<rect width="43.1003" height="40" fill="white" transform="translate(0 0.75)"/>
</clipPath>
</defs>
</svg>
