<svg width="152" height="147" viewBox="0 0 152 147" fill="none" xmlns="http://www.w3.org/2000/svg">
<path d="M94.5302 28.6136L79.3267 0L61.4201 28.6136L26.6632 11.8112L29.8757 40.3937L1.6064 53.3452C1.6064 53.3452 24.035 65.1409 27.4538 65.8917L16.1317 86.4546L40.6916 87.5233C40.6916 87.5233 37.1478 91.4489 30.1289 96.0787C22.5193 101.101 11.3004 105.793 7.96591 108.943C5.12522 111.629 -0.284261 117.738 2.06579 125.35C4.1127 131.973 7.87841 137.949 17.7067 142.283C29.2695 147.377 41.5728 144.779 44.0385 142.283C50.1386 136.114 46.0573 123.25 39.2978 119.443C34.3602 116.66 30.082 115.504 30.082 115.504C30.082 115.504 39.3853 111.566 47.198 105.005C55.0106 98.4435 59.5732 91.0906 59.5732 91.0906C59.5732 91.0906 62.0951 118.523 62.9952 123.555C64.0921 129.68 70.8953 144.56 82.3049 145.956C93.7145 147.352 99.9928 142.859 103.924 139.463C107.855 136.067 118.203 126.135 115.043 116.685C111.884 107.236 105.477 102.553 96.524 104.304C87.5707 106.055 80.3736 116.903 80.3736 116.903C80.3736 116.903 78.1705 93.5582 77.4705 90.8476L104.774 101.677L107.584 84.1771L142.694 88.5514L127.946 62.826L151.997 36.3995L120.574 36.7484L119.346 11.7209L94.5271 28.6105L94.5302 28.6136Z" fill="white"/>
<path d="M89.6426 80.9839C98.1445 80.9839 105.037 74.1126 105.037 65.6365C105.037 57.1603 98.1445 50.2891 89.6426 50.2891C81.1407 50.2891 74.2485 57.1603 74.2485 65.6365C74.2485 74.1126 81.1407 80.9839 89.6426 80.9839Z" fill="#2B2926"/>
<path d="M61.2105 71.7336C58.8417 71.7336 56.526 71.2694 54.3228 70.3565C45.1882 66.5679 40.8507 56.0746 44.6507 46.9708C47.4445 40.2785 53.9478 35.9541 61.2198 35.9541C63.5886 35.9541 65.9043 36.4183 68.1075 37.3312C72.5326 39.1663 75.9733 42.609 77.8014 47.0269C79.6296 51.4448 79.6202 56.3052 77.7795 60.7169C74.9857 67.4091 68.4825 71.7367 61.2105 71.7367V71.7336Z" fill="#2B2926"/>
<path d="M61.2231 38.4903C63.195 38.4903 65.1981 38.8704 67.1326 39.6712C74.9827 42.927 78.6984 51.9123 75.4296 59.7387C72.967 65.6365 67.2419 69.1945 61.2106 69.1945C59.2386 69.1945 57.2355 68.8144 55.3011 68.0137C47.4509 64.7579 43.7352 55.7725 47.004 47.9462C49.4666 42.0484 55.1917 38.4903 61.2231 38.4903ZM61.2231 33.415C52.9198 33.415 45.4915 38.3533 42.3039 45.9958C37.9632 56.3926 42.9164 68.372 53.3479 72.6996C55.8604 73.7433 58.5074 74.2698 61.2137 74.2698C69.517 74.2698 76.9453 69.3316 80.1328 61.6891C84.4735 51.2923 79.5203 39.3129 69.0888 34.9853C66.5763 33.9416 63.9294 33.415 61.2231 33.415Z" fill="white"/>
<path d="M89.6195 73.1339C93.5908 73.1339 96.8103 69.9242 96.8103 65.9649C96.8103 62.0056 93.5908 58.7959 89.6195 58.7959C85.6481 58.7959 82.4287 62.0056 82.4287 65.9649C82.4287 69.9242 85.6481 73.1339 89.6195 73.1339Z" fill="white"/>
<path d="M61.1908 61.338C65.1621 61.338 68.3815 58.1283 68.3815 54.169C68.3815 50.2097 65.1621 47 61.1908 47C57.2194 47 54 50.2097 54 54.169C54 58.1283 57.2194 61.338 61.1908 61.338Z" fill="white"/>
</svg>
