<svg width="316" height="170" viewBox="0 0 316 170" fill="none" xmlns="http://www.w3.org/2000/svg">
<g filter="url(#filter0_d_8264_5469)">
<path d="M20 80C20 46.8629 46.8629 20 80 20H230C263.137 20 290 46.8629 290 80C290 113.137 263.137 140 230 140H80C46.8629 140 20 113.137 20 80Z" fill="#FF7748" shape-rendering="crispEdges"/>
<path d="M80 19.5C46.5868 19.5 19.5 46.5868 19.5 80C19.5 113.413 46.5868 140.5 80 140.5H230C263.413 140.5 290.5 113.413 290.5 80C290.5 46.5868 263.413 19.5 230 19.5H80Z" stroke="#2B2926" stroke-opacity="0.05" shape-rendering="crispEdges"/>
</g>
<path d="M197.594 113.696L202.01 94.4005C202.01 89.8565 201.882 85.2165 201.626 80.4805C201.434 75.6805 201.178 70.9125 200.858 66.1765C200.602 61.4405 200.346 57.6325 200.09 54.7525C199.898 51.8725 199.802 50.4325 199.802 50.4325L215.45 44.4805V56.1925C215.45 59.9045 215.418 63.2645 215.354 66.2725C215.354 69.2165 215.354 71.8085 215.354 74.0485C216.186 71.8725 217.178 69.1845 218.33 65.9845C219.546 62.7845 220.666 59.6805 221.69 56.6725C222.33 54.8805 222.938 53.0885 223.514 51.2965C224.154 49.4405 224.794 47.5205 225.434 45.5365L240.314 48.8965C237.562 54.3365 234.874 59.8085 232.25 65.3125C230.714 68.7045 229.018 72.2885 227.162 76.0645C225.37 79.7765 223.674 83.2645 222.074 86.5285C220.538 89.7285 219.322 92.2885 218.426 94.2085C218.106 95.8725 217.69 97.6965 217.178 99.6805C216.73 101.664 216.282 103.552 215.834 105.344C215.578 106.368 215.29 107.424 214.97 108.512C214.65 109.536 214.33 110.592 214.01 111.68L197.594 113.696Z" fill="white"/>
<path d="M169.855 114.944C169.983 113.856 170.111 112.8 170.239 111.776C170.367 110.752 170.495 109.728 170.623 108.704L171.199 103.328C171.263 102.432 171.327 101.6 171.391 100.832C171.455 100.064 171.519 99.36 171.583 98.72H163.231L159.391 112.544C157.983 112.736 156.319 112.96 154.399 113.216C152.479 113.408 150.687 113.6 149.023 113.792C147.999 113.92 146.975 114.048 145.951 114.176C144.991 114.304 143.999 114.432 142.975 114.56L150.559 89.408C151.455 86.4 152.479 82.976 153.631 79.136C154.783 75.296 155.935 71.36 157.087 67.328C158.303 63.296 159.423 59.52 160.447 56C161.535 52.416 162.399 49.408 163.039 46.976C167.391 46.656 171.807 46.272 176.287 45.824C180.831 45.376 185.247 44.768 189.535 44C189.215 47.584 188.895 51.648 188.575 56.192C188.319 60.672 188.063 65.312 187.807 70.112C187.615 74.912 187.391 79.648 187.135 84.32C187.007 88.736 186.847 93.312 186.655 98.048C186.463 102.72 186.271 107.52 186.079 112.448C185.119 112.576 184.159 112.704 183.199 112.832C182.239 112.96 181.279 113.088 180.319 113.216C178.719 113.472 176.959 113.76 175.039 114.08C173.119 114.4 171.391 114.688 169.855 114.944ZM165.535 89.12C165.919 89.12 166.623 89.088 167.647 89.024C168.735 88.96 169.759 88.896 170.719 88.832C171.679 88.768 172.255 88.736 172.447 88.736C172.447 87.904 172.575 86.208 172.831 83.648C173.087 81.088 173.343 78.4 173.599 75.584C173.727 73.92 173.855 72.224 173.983 70.496C174.175 68.704 174.367 66.88 174.559 65.024L175.135 56.672L173.695 56.768L171.487 65.024L165.535 89.12Z" fill="white"/>
<path d="M112.494 115.328C113.198 110.272 113.934 105.184 114.702 100.064C115.534 94.9445 116.366 90.0165 117.198 85.2805C118.094 80.4805 118.926 76.1605 119.694 72.3205C120.526 68.1605 121.358 63.9365 122.19 59.6485C123.022 55.3605 123.886 51.0405 124.782 46.6885L141.582 44.4805L136.59 66.1765C135.694 69.9525 134.766 74.0165 133.806 78.3685C132.91 82.6565 132.078 86.8165 131.31 90.8485C130.542 94.8805 129.934 98.4645 129.486 101.6C131.086 101.472 132.782 101.408 134.574 101.408C136.43 101.344 138.062 101.312 139.47 101.312C139.534 102.784 139.662 104.352 139.854 106.016C140.046 107.616 140.238 109.024 140.43 110.24C140.686 111.392 140.814 112.032 140.814 112.16C140.558 112.16 140.302 112.16 140.046 112.16C139.854 112.16 139.63 112.128 139.374 112.064H137.838C135.342 112.064 132.558 112.192 129.486 112.448C126.478 112.64 123.47 112.992 120.462 113.504C117.518 113.952 114.862 114.56 112.494 115.328Z" fill="white"/>
<path d="M70 115.233C71.92 106.593 73.744 98.1451 75.472 89.8891C76.176 86.5611 76.88 83.0091 77.584 79.2331C78.352 75.3931 79.12 71.5211 79.888 67.6171C80.656 63.7131 81.36 60.0331 82 56.5771C82.64 53.0571 83.152 49.9851 83.536 47.3611C86.096 46.5931 88.848 45.8891 91.792 45.2491C94.8 44.6091 97.488 44.2891 99.856 44.2891C103.696 44.2891 106.736 45.1211 108.976 46.7851C111.216 48.3851 112.816 50.5611 113.776 53.3131C114.736 56.0651 115.216 59.0731 115.216 62.3371C115.216 65.9211 114.544 69.3771 113.2 72.7051C111.92 75.9691 110.16 78.9131 107.92 81.5371C105.744 84.1611 103.216 86.2411 100.336 87.7771C97.52 89.3131 94.576 90.0811 91.504 90.0811H90.448C89.936 92.2571 89.456 94.6251 89.008 97.1851C88.56 99.7451 88.176 102.113 87.856 104.289C87.6 105.569 87.376 106.849 87.184 108.129C86.992 109.409 86.8 110.689 86.608 111.969L70 115.233ZM92.368 80.0011C93.84 79.6171 95.312 78.6571 96.784 77.1211C98.256 75.5211 99.472 73.5051 100.432 71.0731C101.392 68.6411 101.872 65.9851 101.872 63.1051C101.872 60.7371 101.328 58.9451 100.24 57.7291C99.216 56.5131 98.064 55.9051 96.784 55.9051C96.08 60.1291 95.376 64.1291 94.672 67.9051C93.968 71.6811 93.2 75.7131 92.368 80.0011Z" fill="white"/>
<defs>
<filter id="filter0_d_8264_5469" x="-6" y="-2" width="322" height="172" filterUnits="userSpaceOnUse" color-interpolation-filters="sRGB">
<feFlood flood-opacity="0" result="BackgroundImageFix"/>
<feColorMatrix in="SourceAlpha" type="matrix" values="0 0 0 0 0 0 0 0 0 0 0 0 0 0 0 0 0 0 127 0" result="hardAlpha"/>
<feOffset dy="4"/>
<feGaussianBlur stdDeviation="12.5"/>
<feComposite in2="hardAlpha" operator="out"/>
<feColorMatrix type="matrix" values="0 0 0 0 0 0 0 0 0 0 0 0 0 0 0 0 0 0 0.05 0"/>
<feBlend mode="normal" in2="BackgroundImageFix" result="effect1_dropShadow_8264_5469"/>
<feBlend mode="normal" in="SourceGraphic" in2="effect1_dropShadow_8264_5469" result="shape"/>
</filter>
</defs>
</svg>
